<svg width="69" height="65" viewBox="0 0 69 65" fill="none" xmlns="http://www.w3.org/2000/svg">
<path fill-rule="evenodd" clip-rule="evenodd" d="M48.3 63.6552L34.0241 45.7242C32.8415 44.2387 33.1611 42.1313 34.7379 41.0173C36.3148 39.9032 38.5518 40.2042 39.7345 41.6897L51.1552 56.0345L62.5758 41.6897C63.3409 40.7288 64.592 40.2253 65.8579 40.369C67.1238 40.5127 68.2122 41.2816 68.7131 42.3862C69.214 43.4908 69.0512 44.7632 68.2862 45.7242L54.0103 63.6552C53.3363 64.5018 52.2785 65 51.1552 65C50.0318 65 48.974 64.5018 48.3 63.6552ZM3.56896 6.72417C27.7219 6.72294 47.3632 25.0584 47.5813 47.8102L51.1552 52.299L54.7194 47.8221C54.5325 21.3422 31.679 -0.024276 3.56896 4.14376e-05C1.59788 4.14376e-05 0 1.50529 0 3.36211C0 5.21893 1.59788 6.72417 3.56896 6.72417Z" fill="#FDC87E"/>
</svg>
