<svg width="95" height="95" viewBox="0 0 95 95" fill="none" xmlns="http://www.w3.org/2000/svg">
<path fill-rule="evenodd" clip-rule="evenodd" d="M79.2879 59.772L56.5142 57.1874C54.6276 56.9733 53.3635 55.2572 53.6907 53.3544C54.0179 51.4516 55.8126 50.0826 57.6993 50.2967L75.9182 52.3644L73.8505 34.1455C73.712 32.925 74.2407 31.6844 75.2375 30.8908C76.2342 30.0973 77.5475 29.8714 78.6828 30.2983C79.818 30.7252 80.6027 31.74 80.7412 32.9604L83.3258 55.7341C83.4478 56.8094 83.0521 57.9097 82.2578 58.704C81.4635 59.4983 80.3632 59.894 79.2879 59.772ZM7.40204 51.1453C24.4799 34.0657 51.3335 33.1423 67.5756 49.0761L73.2768 49.723L72.6314 44.0371C53.7752 25.4451 22.507 26.4966 2.64736 46.3906C1.25359 47.7844 1.1881 49.9786 2.50106 51.2916C3.81403 52.6045 6.00828 52.539 7.40204 51.1453Z" fill="#FDC87E"/>
</svg>
