<svg width="83" height="30" viewBox="0 0 83 30" fill="none" xmlns="http://www.w3.org/2000/svg">
<path fill-rule="evenodd" clip-rule="evenodd" d="M4.71206 29.772L27.4858 27.1874C29.3724 26.9733 30.6365 25.2572 30.3093 23.3544C29.9821 21.4516 28.1874 20.0826 26.3007 20.2967L8.08178 22.3644L10.1495 4.14546C10.288 2.92502 9.75928 1.68436 8.76255 0.890815C7.76582 0.0972709 6.45247 -0.128589 5.31723 0.298307C4.182 0.725203 3.39734 1.74 3.25883 2.96044L0.674235 25.7341C0.552206 26.8094 0.947877 27.9097 1.74221 28.704C2.53654 29.4983 3.63683 29.894 4.71206 29.772ZM76.598 21.1453C59.5201 4.06572 32.6665 3.14229 16.4244 19.0761L10.7232 19.723L11.3686 14.0371C30.2248 -4.55492 61.493 -3.50339 81.3526 16.3906C82.7464 17.7844 82.8119 19.9786 81.4989 21.2916C80.186 22.6045 77.9917 22.539 76.598 21.1453Z" fill="#FDC87E"/>
</svg>
